<?xml version="1.0" encoding="UTF-8"?>
<svg width="2800px" height="2250px" viewBox="0 0 2800 2250" version="1.1" xmlns="http://www.w3.org/2000/svg" xmlns:xlink="http://www.w3.org/1999/xlink" style="background: #FFFFFF;">
    <!-- Generator: Sketch 49 (51002) - http://www.bohemiancoding.com/sketch -->
    <title>01</title>
    <desc>Created with Sketch.</desc>
    <defs>
        <linearGradient x1="101.499999%" y1="-0.499999523%" x2="0.499999523%" y2="101.499999%" id="linearGradient-1">
            <stop stop-color="#3023AE" offset="0%"></stop>
            <stop stop-color="#9E0000" offset="100%"></stop>
        </linearGradient>
        <filter x="-15.0%" y="-8.8%" width="123.3%" height="124.9%" filterUnits="objectBoundingBox" id="filter-2">
            <feOffset dx="-30" dy="30" in="SourceAlpha" result="shadowOffsetOuter1"></feOffset>
            <feGaussianBlur stdDeviation="30" in="shadowOffsetOuter1" result="shadowBlurOuter1"></feGaussianBlur>
            <feColorMatrix values="0 0 0 0 0   0 0 0 0 0   0 0 0 0 0  0 0 0 0.5 0" type="matrix" in="shadowBlurOuter1" result="shadowMatrixOuter1"></feColorMatrix>
            <feMerge>
                <feMergeNode in="shadowMatrixOuter1"></feMergeNode>
                <feMergeNode in="SourceGraphic"></feMergeNode>
            </feMerge>
        </filter>
        <filter x="-11.2%" y="-9.3%" width="117.5%" height="126.1%" filterUnits="objectBoundingBox" id="filter-3">
            <feOffset dx="-30" dy="30" in="SourceAlpha" result="shadowOffsetOuter1"></feOffset>
            <feGaussianBlur stdDeviation="30" in="shadowOffsetOuter1" result="shadowBlurOuter1"></feGaussianBlur>
            <feColorMatrix values="0 0 0 0 0   0 0 0 0 0   0 0 0 0 0  0 0 0 0.5 0" type="matrix" in="shadowBlurOuter1" result="shadowMatrixOuter1"></feColorMatrix>
            <feMerge>
                <feMergeNode in="shadowMatrixOuter1"></feMergeNode>
                <feMergeNode in="SourceGraphic"></feMergeNode>
            </feMerge>
        </filter>
        <path d="M600,585.272067 C832.010997,585.272067 1052.47047,826.917352 1150.43715,801.783931 C1188.19422,792.097327 1197.44559,666.394211 1197.44559,585.272067 C1197.44559,293.665719 921.429724,0 600,0 C278.570276,0 0.222771913,302.61411 0.222771913,594.220458 C0.222771913,672.508896 19.1960359,791.583902 54.7687648,801.783931 C151.696233,829.576654 364.865486,585.272067 600,585.272067 Z" id="path-4"></path>
        <filter x="-9.2%" y="-7.8%" width="116.3%" height="117.9%" filterUnits="objectBoundingBox" id="filter-6">
            <feOffset dx="-12" dy="12" in="SourceAlpha" result="shadowOffsetOuter1"></feOffset>
            <feGaussianBlur stdDeviation="30" in="shadowOffsetOuter1" result="shadowBlurOuter1"></feGaussianBlur>
            <feColorMatrix values="0 0 0 0 0   0 0 0 0 0   0 0 0 0 0  0 0 0 0.812018795 0" type="matrix" in="shadowBlurOuter1" result="shadowMatrixOuter1"></feColorMatrix>
            <feMerge>
                <feMergeNode in="shadowMatrixOuter1"></feMergeNode>
                <feMergeNode in="SourceGraphic"></feMergeNode>
            </feMerge>
        </filter>
    </defs>
    <g id="01" stroke="none" stroke-width="1" fill="none" fill-rule="evenodd">
        <g id="Group">
            <rect id="Rectangle-2" fill="url(#linearGradient-1)" x="0" y="0" width="2800" height="2250"></rect>
            <g id="Smooth-Corners" transform="translate(632.000000, 357.000000)" fill="#000000">
                <path d="M438.424369,0 L1097.57563,0 C1250.02534,-1.02916871e-14 1305.30728,15.8731795 1361.04062,45.6796923 C1416.77395,75.4862052 1460.51379,119.226051 1490.32031,174.959385 C1520.12682,230.692718 1536,285.974665 1536,438.424369 L1536,1097.57563 C1536,1250.02534 1520.12682,1305.30728 1490.32031,1361.04062 C1460.51379,1416.77395 1416.77395,1460.51379 1361.04062,1490.32031 C1305.30728,1520.12682 1250.02534,1536 1097.57563,1536 L438.424369,1536 C285.974665,1536 230.692718,1520.12682 174.959385,1490.32031 C119.226051,1460.51379 75.4862052,1416.77395 45.6796923,1361.04062 C15.8731795,1305.30728 6.86112476e-15,1250.02534 -1.18085795e-14,1097.57563 L0,438.424369 C-6.86112476e-15,285.974665 15.8731795,230.692718 45.6796923,174.959385 C75.4862052,119.226051 119.226051,75.4862052 174.959385,45.6796923 C230.692718,15.8731795 285.974665,1.02916871e-14 438.424369,-1.77128693e-14 Z" id="Combined-Shape"></path>
            </g>
            <g id="Full-Tower" opacity="0.2" style="mix-blend-mode: overlay;" transform="translate(800.000000, 420.000000)">
                <g id="Tower" filter="url(#filter-2)" transform="translate(150.000000, 489.000000)" fill="#FFFFFF">
                    <path d="M807.835044,740.445567 L459.498774,621.951816 L90.0708313,747.620334 L25.9417433,842.110739 C20.0072107,850.854921 10.3854322,850.854921 4.4508995,842.110739 C-1.48363317,833.366558 -1.48363317,819.189438 4.4508995,810.445256 L205.137153,514.74597 C205.893803,513.060311 206.869547,511.636043 207.991481,510.540287 L308.08751,363.054728 C309.131822,359.37616 311.112241,356.554146 313.507635,355.068495 L413.982406,207.024882 C392.464402,187.256721 417.535291,210.01217 459.498774,210.01217 C501.462256,210.01217 514.244794,190.941422 490.820288,210.01217 L898.549101,810.776381 C904.483633,819.520562 904.483633,833.697682 898.549101,842.441864 C892.614568,851.186045 882.992789,851.186045 877.058257,842.441864 L807.835044,740.445567 Z M677.163433,547.908703 L504.534708,606.631916 L780.798417,700.608702 L677.163433,547.908703 Z M640.644485,494.100199 L462.741912,433.582978 L255.314423,504.143707 L245.548934,518.532575 L459.498774,591.312016 L660.269074,523.015867 L640.644485,494.100199 Z M573.907777,395.767621 L507.777846,418.263078 L613.607858,454.263334 L573.907777,395.767621 Z M459.113624,226.625248 C458.51028,225.736257 457.968277,224.791111 457.487613,223.801227 C456.373423,223.872681 455.253006,223.908779 454.126868,223.908779 C451.255741,223.908779 448.421808,223.674137 445.63342,223.217159 C445.123263,224.299184 444.540915,225.329699 443.886376,226.294123 L350.02119,364.598905 L462.741912,402.943178 L557.013418,370.874785 L459.113624,226.625248 Z M117.107458,707.783469 L414.462839,606.631916 L228.654575,543.425411 L117.107458,707.783469 Z M282.351049,464.306842 L417.705977,418.263078 L333.126831,389.491741 L282.351049,464.306842 Z" id="Combined-Shape"></path>
                    <path d="M454.859985,225 C392.727951,225 342.359985,174.632034 342.359985,112.5 C342.359985,50.3679656 392.727951,0 454.859985,0 C516.99202,0 567.359985,50.3679656 567.359985,112.5 C567.359985,174.632034 516.99202,225 454.859985,225 Z M456,201 C505.705627,201 546,160.705627 546,111 C546,61.2943725 505.705627,21 456,21 C406.294373,21 366,61.2943725 366,111 C366,160.705627 406.294373,201 456,201 Z" id="Oval"></path>
                </g>
                <g id="Signals" filter="url(#filter-3)">
                    <mask id="mask-5" fill="white">
                        <use xlink:href="#path-4"></use>
                    </mask>
                    <use id="Mask" fill="#000000" opacity="0" xlink:href="#path-4"></use>
                    <path d="M600,975 C392.893219,975 225,807.106781 225,600 C225,392.893219 392.893219,225 600,225 C807.106781,225 975,392.893219 975,600 C975,807.106781 807.106781,975 600,975 Z M601.5,939 C787.896103,939 939,787.896103 939,601.5 C939,415.103897 787.896103,264 601.5,264 C415.103897,264 264,415.103897 264,601.5 C264,787.896103 415.103897,939 601.5,939 Z" id="Combined-Shape" fill="#FFFFFF" mask="url(#mask-5)"></path>
                    <path d="M600,1200 C268.62915,1200 0,931.37085 0,600 C0,268.62915 268.62915,0 600,0 C931.37085,0 1200,268.62915 1200,600 C1200,931.37085 931.37085,1200 600,1200 Z M601.5,1173 C912.160172,1173 1164,921.160172 1164,610.5 C1164,299.839828 912.160172,48 601.5,48 C290.839828,48 39,299.839828 39,610.5 C39,921.160172 290.839828,1173 601.5,1173 Z" id="Combined-Shape" fill="#FFFFFF" mask="url(#mask-5)"></path>
                </g>
            </g>
            <g id="Beats" transform="translate(845.000000, 453.000000)">
                <path d="M36,586.5 C52.5685425,586.5 66,599.931458 66,616.5 L66,946.5 C66,963.068542 52.5685425,976.5 36,976.5 C19.4314575,976.5 6,963.068542 6,946.5 L6,616.5 C6,599.931458 19.4314575,586.5 36,586.5 Z M36,555.176471 C16.117749,555.176471 0,538.347644 0,517.588235 C0,496.828826 16.117749,480 36,480 C55.882251,480 72,496.828826 72,517.588235 C72,538.347644 55.882251,555.176471 36,555.176471 Z M208,250.151163 C224.568542,250.151163 238,263.58262 238,280.151163 L238,1188 C238,1204.56854 224.568542,1218 208,1218 C191.431458,1218 178,1204.56854 178,1188 L178,280.151163 C178,263.58262 191.431458,250.151163 208,250.151163 Z M207,218.930233 C187.117749,218.930233 171,202.156529 171,181.465116 C171,160.773704 187.117749,144 207,144 C226.882251,144 243,160.773704 243,181.465116 C243,202.156529 226.882251,218.930233 207,218.930233 Z M380,421 C396.568542,421 410,434.431458 410,451 L410,1080 C410,1096.56854 396.568542,1110 380,1110 C363.431458,1110 350,1096.56854 350,1080 L350,451 C350,434.431458 363.431458,421 380,421 Z M381,389.823529 C361.117749,389.823529 345,373.073712 345,352.411765 C345,331.749818 361.117749,315 381,315 C400.882251,315 417,331.749818 417,352.411765 C417,373.073712 400.882251,389.823529 381,389.823529 Z M555,100.056338 C571.568542,100.056338 585,114.055322 585,131.323944 L585,1300.73239 C585,1318.00102 571.568542,1332 555,1332 C538.431458,1332 525,1318.00102 525,1300.73239 L525,131.323944 C525,114.055322 538.431458,100.056338 555,100.056338 Z M555,75.0422535 C535.117749,75.0422535 519,58.2434729 519,37.5211268 C519,16.7987807 535.117749,0 555,0 C574.882251,0 591,16.7987807 591,37.5211268 C591,58.2434729 574.882251,75.0422535 555,75.0422535 Z M724,421 C740.568542,421 754,434.431458 754,451 L754,1080 C754,1096.56854 740.568542,1110 724,1110 C707.431458,1110 694,1096.56854 694,1080 L694,451 C694,434.431458 707.431458,421 724,421 Z M723,389.823529 C703.117749,389.823529 687,373.073712 687,352.411765 C687,331.749818 703.117749,315 723,315 C742.882251,315 759,331.749818 759,352.411765 C759,373.073712 742.882251,389.823529 723,389.823529 Z M896,250.151163 C912.568542,250.151163 926,263.58262 926,280.151163 L926,1188 C926,1204.56854 912.568542,1218 896,1218 C879.431458,1218 866,1204.56854 866,1188 L866,280.151163 C866,263.58262 879.431458,250.151163 896,250.151163 Z M897,218.930233 C877.117749,218.930233 861,202.156529 861,181.465116 C861,160.773704 877.117749,144 897,144 C916.882251,144 933,160.773704 933,181.465116 C933,202.156529 916.882251,218.930233 897,218.930233 Z M1068,586.5 C1084.56854,586.5 1098,599.931458 1098,616.5 L1098,946.5 C1098,963.068542 1084.56854,976.5 1068,976.5 C1051.43146,976.5 1038,963.068542 1038,946.5 L1038,616.5 C1038,599.931458 1051.43146,586.5 1068,586.5 Z M1068,555.176471 C1048.11775,555.176471 1032,538.347644 1032,517.588235 C1032,496.828826 1048.11775,480 1068,480 C1087.88225,480 1104,496.828826 1104,517.588235 C1104,538.347644 1087.88225,555.176471 1068,555.176471 Z" id="Combined-Shape"></path>
            </g>
            <g id="LPFM-Hand" filter="url(#filter-6)" transform="translate(905.000000, 639.000000)" fill="#FFFFFF">
                <g id="Grouped" transform="translate(2.830904, 1.457726)">
                    <path d="M416.143584,309.421482 C416.105554,309.314038 416.068128,309.20662 416.029495,309.099145 C416.045794,309.144682 416.062092,309.190816 416.077787,309.236325 M184.76448,729.638008 C184.670312,729.626828 184.576143,729.613768 184.483182,729.600659 M193.052051,718.24612 C193.13294,718.012528 193.214432,717.78011 193.296527,717.547082 M351.351635,645.312804 C351.394494,644.955444 351.437353,644.598091 351.481419,644.241291 M127.385394,639.400419 C127.344346,639.038095 127.303902,638.673942 127.264062,638.309769 M348.777956,550.207291 C348.723628,549.738582 348.669904,549.271589 348.617991,548.806308 M629.70332,522.565101 C629.534903,522.330316 629.365883,522.094426 629.196863,521.857432 M588.37846,487.746553 C597.169816,492.271805 605.589786,497.578559 613.357821,504.037854 C619.703556,509.904201 625.304222,516.541957 630.444968,523.707758 C639.014988,536.611832 645.437184,551.154955 651.125235,565.816074 C660.258655,590.273437 667.431094,615.56772 673.689445,640.976924 C675.145089,646.882938 676.623154,652.795748 677.763754,658.787702 C678.719811,663.756097 679.66552,668.722689 680.610079,673.687209 C683.087893,686.627792 685.564558,699.566339 688.030875,712.478026 C690.808786,726.935199 692.877848,741.520892 694.704877,756.162201 C696.892367,774.579997 698.52738,793.07259 699.461016,811.665979 C699.950255,821.520802 700.233105,831.387586 700.449842,841.269551 C700.536652,845.587234 700.667729,849.913296 700.613114,854.241008 C700.406725,870.267145 700.189413,886.30741 699.982449,902.324301 C699.927834,906.506801 699.851372,910.690752 699.762838,914.876434 C696.820505,907.995128 693.852877,901.118314 690.877774,894.233173 C684.64127,879.777224 678.274839,865.360844 671.907258,850.890311 C666.290495,838.11691 660.238533,825.545046 654.371114,812.842205 C651.611599,806.861206 648.569809,801.036447 645.668293,795.134053 C642.224649,788.123904 638.779854,781.102819 635.347132,774.057589 C628.567348,760.186726 621.374212,746.500615 614.398963,732.663018 C601.110748,706.192307 587.964533,679.485505 575.002286,652.48179 C569.384948,640.730567 563.76761,628.924851 558.172118,617.102185 C552.012076,604.030899 546.025078,590.785816 539.625877,577.796517 C526.044464,550.141216 512.54986,522.273361 498.609709,494.516262 C496.344607,489.987436 494.061683,485.46246 491.77646,480.93473 C492.322614,480.596405 492.868193,480.249201 493.413197,479.899836 C501.024285,476.83096 508.910174,474.727908 516.896096,473.380496 C526.563597,472.312085 536.25352,472.926918 545.89515,474.362822 M304.991207,413.429763 C305.945539,414.06766 306.85273,414.748454 307.758195,415.490629 C310.960958,418.861854 313.828554,422.610246 316.507008,426.575698 C321.746062,435.500171 325.71459,445.345634 329.350251,455.292367 C334.24954,469.80928 337.885202,484.888324 340.990806,500.001318 C344.432151,516.742864 346.874897,533.82789 348.841626,550.872068 C352.241579,582.470684 354.337086,614.768092 351.198137,646.594835 C350.534129,652.048574 349.720072,657.45197 348.772064,662.833884 C346.089585,666.827941 343.689382,671.074276 341.751397,675.664005 C340.761421,678.009434 339.888724,680.417365 339.137906,682.874217 C333.805143,666.575432 328.455708,650.244141 323.182735,633.836936 C321.47701,628.519253 320.184062,622.92839 318.695648,617.494349 C315.990174,607.617005 313.284699,597.72915 310.5798,587.829614 C308.808536,581.370941 307.005078,574.948006 305.494818,568.38618 C300.650144,547.35389 296.617228,526.114527 294.057203,504.418708 C291.831769,483.503844 290.944125,462.357899 292.929826,441.403169 C293.792749,434.473501 294.967268,427.57361 296.996086,421.04484 C298.040103,418.575957 299.191626,416.234131 300.509294,413.977668 C300.689812,413.744129 300.874355,413.516527 301.064072,413.296053 C301.294606,413.2216 301.52629,413.153588 301.759125,413.091435 C302.611125,413.073991 303.440129,413.099696 304.276032,413.171552 M302.969287,412.832156 C303.261336,412.77844 303.554534,412.735151 303.850032,412.701092 M303.86452,412.701867 C303.882025,412.697997 303.901946,412.696017 303.921866,412.694037 M301.626898,412.912443 C302.091991,412.640215 302.573756,412.408035 303.071619,412.216461 M703.839447,375.692541 C703.601439,375.658137 703.36573,375.613147 703.132321,375.558132 M702.472337,375.149944 C702.760361,375.108079 703.055859,375.071525 703.351357,375.034415 M25.8610799,294.493046 C30.3257453,300.079779 34.2948479,306.173552 38.0886063,312.474983 C44.5872643,323.814818 50.0850233,336.139207 55.0987173,348.541261 C60.7333022,362.454457 65.7159516,376.734716 70.5577508,391.037306 C77.3001661,412.975045 83.9804922,434.879489 90.6924378,456.714326 C92.1699282,461.484326 93.3766411,466.399008 94.6908602,471.229925 C96.7443994,478.793832 98.7433231,486.364541 100.688781,493.95624 C104.817131,510.062413 108.576395,526.277985 111.966575,542.606808 C115.367102,558.981974 118.442237,575.446421 121.114942,591.990858 C123.733607,608.093498 125.731956,624.320004 127.502645,640.579805 C128.21092,647.376131 128.862281,654.183448 129.449253,661.003994 C122.129064,646.692775 115.477483,631.793064 109.478412,616.478584 C103.606394,601.486855 97.7464483,586.473264 91.875005,571.410224 C86.5962826,555.286663 81.3894225,539.096379 76.1440442,522.883166 C74.09108,516.539452 72.0375408,510.177193 69.9840017,503.809191 C68.2455071,498.426211 66.908867,492.780814 65.3876843,487.28253 C59.6731885,466.688312 53.9581177,446.033944 48.2321239,425.347361 C44.298665,411.07847 40.9199837,396.497342 37.5844198,381.968292 C34.9329858,370.450126 32.5540538,358.832487 30.4458992,347.11702 C28.2342628,334.778381 25.9335171,322.438563 24.4071603,309.925146 C23.8426095,303.846694 23.4735244,297.669058 23.4321317,291.528296 M714.042179,283.7565 C714.197919,283.688317 714.354866,283.623563 714.513021,283.562238 M384.411776,43.6559384 C385.95193,48.4914237 387.32249,53.3322614 388.65568,58.2308023 C389.764085,62.3098703 391.035187,66.3764785 391.980321,70.4995733 C394.03386,79.4122855 395.881011,88.3619158 397.836817,97.2888319 C399.553465,105.123567 400.715911,113.122609 402.139361,120.998544 C403.22592,127.010407 404.323402,133.019897 405.311653,139.043414 C410.613947,171.275631 415.927163,203.450084 420.848873,235.617969 C426.850819,274.784287 433.33338,313.863572 437.916474,353.052742 C438.550013,358.804142 439.131236,364.565232 439.654394,370.332611 C431.270642,350.381967 423.493409,329.993641 416.138151,309.406133 C416.366961,310.052441 416.592321,310.700806 416.818257,311.34345 C416.569325,310.638909 416.322694,309.934969 416.075487,309.229793 C415.982353,308.96901 415.88922,308.708787 415.796661,308.448011 C415.874847,308.66433 415.952459,308.881754 416.029495,309.099145 C397.409667,255.669229 383.038342,199.718285 376.178648,142.512829 C374.705756,128.927928 373.737052,115.330957 373.499044,101.710094 C373.255861,88.4954557 373.504218,75.2138741 374.823611,62.2177208 C375.994105,53.7039638 377.865401,45.578541 380.524309,37.7057647 C380.745645,37.1697009 380.972155,36.6393758 381.204989,36.1149084 M379.139032,31.9290697 C379.076857,31.9322711 379.015285,31.9361371 378.95311,31.939339 C379.012871,31.9304705 379.072028,31.9227437 379.131185,31.9144154 M1102.34908,92.2264641 C1090.71311,96.9104684 1079.06564,101.605663 1067.53718,106.578479 C1059.33451,110.143861 1051.14277,113.750635 1042.9608,117.408656 C1037.94135,119.674776 1032.71551,121.726512 1027.83692,124.275833 C1011.49597,132.909241 995.034871,141.410375 979.324015,151.286081 C960.625407,163.146984 942.328652,176.036729 925.336345,190.559188 C916.741597,197.945965 908.353812,205.610434 899.553249,212.80644 C892.122097,218.911735 884.959423,225.421483 877.347753,231.335501 C872.310482,234.884248 867.0559,237.839802 861.409812,240.234787 C858.58533,241.175258 855.7482,241.911505 852.801265,242.371146 C849.448451,241.814284 848.060068,241.235181 846.661338,240.579061 C845.023449,239.688908 843.402807,238.765153 841.805161,237.773463 C839.219263,236.157505 836.77479,234.223851 834.340665,232.358393 C829.497136,228.65095 824.916911,224.518696 820.299317,220.459509 C817.862318,218.123188 815.415545,215.742068 812.578416,214.030897 C810.948576,212.871539 809.210079,212.067123 807.37385,211.605775 C805.982593,211.305806 804.603409,210.995095 803.212727,210.69491 C801.419615,210.741159 799.659272,210.895525 797.910428,211.156592 C796.204126,211.656474 794.585784,212.327514 793.03183,213.180723 C790.696013,214.377921 787.914649,217.276302 786.578007,219.655189 C785.860533,221.407891 785.165479,223.162213 784.481349,224.940943 C784.306004,226.334844 784.131235,227.728897 783.95704,229.123101 C782.423783,237.460583 780.523165,245.858694 777.841258,253.784892 C776.65869,256.56608 775.380113,259.284615 773.854905,261.855828 C771.839307,263.615731 770.950512,264.130338 770.026648,264.604662 C767.732799,264.846605 766.757195,264.726928 765.775841,264.572111 C761.88722,263.640329 758.068737,262.593815 754.233007,261.304503 C749.821803,259.803591 745.3991,258.383664 740.977547,256.92494 C736.565768,255.464431 732.067754,254.402368 727.580662,253.398898 C724.799298,252.785297 722.093821,252.272133 719.280262,251.990921 C716.194201,251.668765 712.891403,252.2549 709.881229,252.693184 C707.578181,253.031008 705.459676,254.208977 703.330248,255.110745 C699.994681,257.274559 698.342994,259.013509 697.104661,261.234822 C694.084138,265.662393 693.453473,271.496424 693.171198,277.001809 C693.018849,279.77289 693.725401,282.698637 693.93179,285.50068 C694.137604,288.253711 694.344568,290.995306 694.540609,293.735543 C695.127006,301.582689 695.703056,309.426744 696.27853,317.26929 C696.76777,324.059786 697.31105,330.839391 697.788791,337.626352 C698.1688,342.917521 698.266533,348.208834 698.266533,353.508437 C698.257334,358.683589 698.280905,363.832674 697.885949,368.979798 C694.464147,368.888168 692.443375,367.421133 690.519761,365.812171 C687.018622,362.851758 683.548529,359.835463 680.076135,356.829103 C675.475214,352.483418 670.898438,348.092991 666.312464,343.703296 C662.72739,340.28695 659.261321,336.713366 655.675672,333.287066 C652.612032,330.351142 649.439161,327.589378 646.005861,325.225783 C643.713162,323.639527 641.051951,322.570954 638.552288,321.520501 C636.477475,320.647237 634.293432,320.035781 632.196198,319.257337 C626.340271,317.072579 619.016625,319.743902 616.159949,325.867584 C614.312797,329.826262 612.573726,333.804791 611.433125,338.130234 C611.11808,339.795363 610.759343,341.459496 610.368411,343.110052 C609.909066,345.135129 609.247932,347.128674 608.590247,349.098384 C607.332941,352.072876 605.922712,354.907337 604.253779,357.598015 C603.018895,359.081576 601.733419,360.458105 600.362859,361.777703 C597.966677,363.552627 595.476212,364.989072 592.817877,366.272368 C588.33136,368.104967 583.732738,369.531629 579.185858,371.18182 C573.970369,373.080461 568.853187,375.110361 563.779124,377.444141 C554.380665,381.779534 545.591026,387.183034 537.105508,393.489367 C527.707049,400.505789 518.949604,408.730565 510.12777,416.697546 C503.575639,422.63864 497.024084,428.596345 490.461605,434.57155 C485.451355,439.137966 480.565859,444.009445 476.014379,449.24049 C475.150305,447.453603 474.290255,445.662198 473.435954,443.868557 C471.519239,439.843239 469.597349,435.81737 467.676035,431.788241 C467.289128,403.144051 464.531909,374.408401 460.745621,346.012525 C457.062239,318.397751 452.184216,290.921189 447.338387,263.401783 C441.949279,232.668048 436.364704,201.901758 430.964672,171.025787 C424.978243,136.729947 419.15451,102.337473 412.646072,67.9617435 C411.233544,60.4966281 409.441007,53.0918185 407.854859,45.6511437 C406.887878,41.085509 405.790395,36.5684539 404.475599,32.0786658 C402.976261,26.964267 401.00953,22.0539611 398.988758,17.1596749 C397.032949,12.4220402 394.262508,8.06685599 390.264082,5.5127503 C385.135977,2.23873278 379.62729,0.784787739 374.194488,2.13393425 C370.087981,3.15497309 366.589142,6.32343799 363.949203,9.93807908 C361.308689,13.5828447 359.331035,17.3925742 357.636231,21.8048122 C355.941427,26.2197159 354.463935,30.7259545 353.20318,35.385716 C351.682571,41.0323157 350.846092,46.9837413 350.161386,52.9135639 C347.531796,75.661359 348.085999,99.2617833 350.13954,122.464618 C354.398396,170.750466 365.328962,218.073344 379.268552,263.85511 C392.93679,308.503108 410.049251,351.630166 428.987018,393.06208 C433.426967,402.73014 438.003743,412.299209 442.659855,421.797413 C443.08528,441.993671 442.131522,462.211705 439.964725,482.220695 C437.098276,505.549213 432.527824,528.709839 424.963296,550.689464 C418.537068,567.877282 410.499972,584.024625 400.933643,599.178639 C393.015551,611.027662 384.06379,621.75015 374.81768,632.177999 C375.780062,613.606168 375.278174,594.951609 374.183565,576.450258 C372.792883,552.908715 370.283447,529.482871 366.697798,506.234262 C363.188036,483.430041 357.918506,460.969154 350.31316,439.465982 C343.457482,419.986867 333.570359,399.724368 317.793965,388.616544 C313.686882,385.70675 309.254407,384.545972 304.593121,384.135696 C302.268227,383.936644 299.888718,384.560983 297.596018,384.899942 C295.531554,385.206818 293.022117,386.379362 291.218082,387.468779 C282.92803,392.499997 278.766907,403.389687 276.072353,413.674132 C274.757557,418.709772 274.388472,424.16218 273.823345,429.388337 C273.247296,434.602025 272.900057,439.820987 272.725862,445.0963 C272.356777,456.859043 272.943174,468.726801 273.899232,480.43757 C275.865964,504.55477 279.527499,528.389534 284.058283,551.920832 C285.342608,558.580905 286.724667,565.209217 288.196985,571.804879 C282.331284,558.144214 276.45926,544.452919 270.574588,530.737404 C264.023032,515.434338 257.416861,500.115865 250.919921,484.691138 C247.594702,476.790744 244.205094,468.905463 240.858603,460.996948 C239.087913,456.82461 237.32757,452.663606 235.556879,448.485309 C233.253257,443.048203 230.352313,437.994273 227.657759,432.831313 C225.093132,427.904986 221.029742,424.657775 216.194836,424.558417 C211.631858,424.464648 206.937803,427.436641 204.732488,432.397563 C203.960973,434.024778 203.330883,435.735315 202.831296,437.528268 C202.070128,440.118902 201.983319,442.854841 201.853391,445.590175 C202.037934,447.396122 202.222477,449.201935 202.417943,451.007185 C202.646178,456.405157 202.852567,459.95928 202.939952,463.511604 C203.124494,470.550016 203.341806,477.574556 203.428616,484.610462 C203.635005,501.058724 203.787354,517.504928 203.906358,533.950768 C204.015589,549.16764 204.058706,564.397424 204.124245,579.626701 C204.178285,592.092763 204.145516,604.573593 204.015589,617.056372 C203.906358,627.817918 203.439539,638.547047 202.961223,649.305228 C202.540396,658.816912 202.013788,668.323138 201.079577,677.812937 C200.221826,684.708118 199.085825,691.544773 197.909005,698.385366 C196.90868,704.21895 195.641601,709.945715 193.923227,715.539589 C192.788375,718.432009 191.520721,721.174279 190.077148,723.843887 C189.056702,725.351844 187.992562,726.776923 186.837589,728.149043 C184.635724,729.34149 183.865933,729.357425 183.074296,729.333074 C177.35807,726.382348 173.114736,722.875759 169.052496,719.225448 C162.940163,713.31068 157.365362,706.614032 152.195865,699.446013 C151.921638,676.65206 150.134275,653.999322 147.549527,631.471522 C144.757239,607.094046 140.48746,582.977434 135.565745,559.093792 C130.632532,535.149994 124.907107,511.427853 118.463632,487.944852 C114.628477,473.919614 110.71686,459.871485 106.229769,446.09183 C102.828663,435.659206 99.428132,425.198675 96.0385241,414.724406 C90.4430264,397.478798 84.9234155,380.22495 78.697828,363.226161 C72.2440052,345.520484 65.1813639,327.993478 57.0873527,311.240683 C53.2406996,303.279947 49.0904995,295.596463 44.6574488,288.107797 C42.2779394,284.08288 39.9202762,280.041252 37.4321108,276.09957 C34.8899049,272.069154 32.2603142,268.08518 29.793995,263.967811 C28.2400414,261.386016 25.8145401,257.969983 22.0690693,256.460331 C19.5809039,255.457609 17.5601319,255.642201 15.0610434,255.940063 C13.3225471,256.15358 11.2690058,256.739088 9.80243692,257.896715 C7.14065186,259.854306 5.76089286,261.531881 4.7392963,263.687295 C3.57684935,265.710969 2.77256483,267.809798 2.08843433,270.234372 C0.610367503,275.483458 0.252205063,281.218813 0.0780104901,286.825533 C-0.301998134,298.427263 0.7517928,309.937967 2.25113091,321.433223 C3.94593488,334.429529 6.46686955,347.362566 8.97630622,360.144329 C14.8765006,390.142568 22.7531998,419.448622 31.2502156,448.288627 C37.2475681,468.606708 43.2558436,488.891608 49.253771,509.114278 C50.7094167,514.004545 52.4697592,518.755286 54.1099477,523.529629 C57.9347546,534.579337 61.7589867,545.613702 65.5728705,556.616903 C68.5387774,565.155879 71.5052593,573.685489 74.4711662,582.218546 C76.1665451,587.060917 78.274127,591.68877 80.1971661,596.384137 C84.5974475,607.1362 89.008652,617.855937 93.4089334,628.55651 C97.7551742,639.089646 102.329075,649.367942 107.185827,659.524267 C114.874534,675.563937 123.185282,691.080129 132.300315,705.772172 C133.6772,740.449007 132.999393,775.308692 129.307388,810.030231 C126.912931,831.290473 122.735711,854.655911 115.546017,876.990838 C111.948295,887.29308 107.607228,897.265125 102.872355,906.908141 C108.609278,899.047814 113.889731,890.706799 118.659673,881.944028 C124.28794,871.618347 128.546796,860.024072 132.360105,848.640263 C139.737791,826.641214 144.290421,803.659733 147.408101,780.49551 C149.533505,764.754564 150.901191,748.921278 151.618666,733.074844 C153.950459,735.843282 156.34779,738.524677 158.795137,741.110111 C162.076089,744.577051 165.585851,747.853632 169.084115,750.964343 C170.767996,752.460525 172.343796,753.638857 174.244989,754.653223 C177.38509,756.307442 180.39469,757.026924 183.817067,757.390849 C188.445583,757.871916 193.085023,756.826055 197.235223,753.86641 C200.885835,751.268201 204.124245,747.877447 207.025188,744.11922 C213.717594,735.498286 217.400976,724.252987 220.019643,713.131447 C225.430023,690.226599 226.614891,666.468761 227.516334,642.969124 C228.461469,618.148646 227.842302,593.292771 227.407678,568.481702 C227.179443,555.662664 226.951782,542.843028 226.755742,530.021592 C226.590745,519.232769 226.451045,508.449822 226.369984,497.664236 C226.869572,498.811015 227.370884,499.957571 227.875071,501.101544 C235.35049,518.037554 242.868452,534.908615 250.354795,551.728868 C261.991337,577.735818 273.790576,603.497374 285.503005,629.201761 C300.682079,662.326881 315.90542,695.211837 331.155781,727.872349 C342.196153,760.733088 353.246298,793.427273 364.307365,825.969673 C365.850396,830.495714 367.621087,834.901251 369.294619,839.335075 C372.880268,848.835476 376.465917,858.307525 380.061914,867.77745 C386.298424,884.200384 392.534935,900.604383 398.782369,916.938217 C400.129358,920.468623 401.672389,923.891003 403.139533,927.355694 C406.235942,934.673742 409.408238,941.94964 412.624801,949.173941 C419.0677,963.589984 425.803799,977.772113 432.986019,991.562664 C440.188936,1005.33201 447.848898,1018.70483 455.932561,1031.64427 C459.909142,1037.98922 463.994378,1044.24765 468.372813,1050.18376 C470.655165,1053.2628 473.023176,1056.19066 475.57688,1058.95487 C477.01068,1060.09098 478.445054,1061.21333 479.878854,1062.33551 C481.585156,1063.42504 483.312729,1064.44783 485.029379,1065.50965 C488.875457,1067.88451 494.123141,1067.07437 497.980142,1064.01511 C502.706391,1060.28353 505.74876,1052.62666 503.879761,1046.60587 C502.413193,1041.8775 500.740235,1037.28098 498.686693,1032.88671 C497.285088,1029.87441 495.513823,1027.12639 494.112217,1024.11011 C492.113292,1019.82273 490.124714,1015.53041 488.125788,1011.23533 C485.224845,1004.98905 482.334825,998.708857 479.444804,992.445791 C472.697208,977.754057 465.797838,963.120568 458.898468,948.455628 C447.229731,923.559178 435.245375,898.751142 423.370249,873.738769 C399.898249,823.918029 376.84535,773.316557 353.897084,722.12549 C357.287267,721.006 360.337684,718.421531 362.014666,714.488013 C363.742239,710.454619 364.894338,706.445152 365.633084,702.053293 C365.969975,700.000442 366.306866,697.961097 366.65468,695.909006 C367.239928,692.420939 367.83265,688.93404 368.427096,685.447941 C375.209761,675.594354 382.94791,667.675458 390.275005,659.53905 C403.345347,645.081215 415.40559,629.789621 425.847491,612.743325 C437.071256,594.500915 445.708547,574.326846 452.260103,553.415201 C459.181319,531.370744 462.842854,508.177105 465.33102,485.034676 C465.893846,479.829185 466.348592,474.617004 466.70503,469.396205 C468.146303,475.645359 470.070492,478.72105 472.598325,480.877705 C479.846084,494.961882 487.094993,509.00545 494.351376,522.999438 C500.436113,534.712468 506.096574,546.710343 511.920307,558.539652 C517.79808,570.413869 523.871894,582.156036 529.434623,594.173443 C543.830683,625.192799 558.139934,656.057284 572.319257,686.831428 C584.09665,712.23771 596.070083,737.41716 607.858399,762.568669 C611.530858,770.377423 615.35509,778.103266 618.875775,785.992647 C623.124283,795.487747 627.372791,804.965147 631.609801,814.425036 C638.548264,829.852004 644.956095,845.533564 651.395545,861.15622 C659.065855,880.929329 666.789631,900.620547 673.80973,920.602317 C678.080084,932.708441 682.262478,944.810812 686.293674,956.988633 C688.086211,962.367851 689.661436,967.861101 691.302774,973.307319 C693.627668,981.002032 695.213816,989.005405 697.484669,996.702265 C699.255935,1002.71503 703.362443,1007.19732 709.13156,1008.32475 C712.087119,1008.87905 715.042677,1008.5582 717.997661,1007.36399 C720.822143,1006.18454 723.267191,1004.35511 725.353501,1001.84924 C726.82007,999.662039 728.34183,997.517598 729.56924,995.167735 C731.525049,991.394792 731.981519,987.11296 732.339681,983.044927 C732.730613,978.759751 732.578839,974.554188 732.589763,970.296443 C732.600686,966.514863 732.600686,962.73491 732.611034,958.942267 C732.622532,952.275167 732.665649,945.593427 732.63288,938.919424 C732.567916,924.48501 732.589763,910.030434 732.383374,895.60779 C732.101098,875.870492 732.067754,856.08823 731.112271,836.418069 C730.003864,813.58761 728.037133,790.940954 725.168959,768.358415 C723.821394,757.786645 722.224323,747.244251 720.508248,736.736047 C719.192878,728.689619 717.987313,720.513749 716.216048,712.58462 C712.271662,694.96075 708.32785,677.318111 704.384039,659.643404 C702.580579,651.522467 700.656965,643.517301 698.495343,635.475713 C692.89927,614.738711 686.446022,594.263291 679.274725,574.037959 C675.754615,564.063767 671.907962,554.220635 667.692223,544.555964 C663.552946,535.090209 659.29409,525.740799 654.122293,516.881674 C649.178157,508.378994 643.365922,500.340009 637.096642,492.983002 C630.208196,484.880549 622.015876,478.108311 613.552205,472.22655 C597.167567,460.76282 578.425265,453.313159 559.726657,448.592474 C550.436854,446.238465 540.92974,444.717385 531.466318,443.952323 C529.744494,443.811827 528.026694,443.730187 526.314643,443.698057 C533.031769,437.247118 539.770167,430.828439 546.698857,424.730636 C551.749925,420.499542 556.945867,416.568406 562.355672,412.949362 C567.183679,409.732926 572.277289,407.055722 577.445062,404.609238 C583.244074,402.152751 589.160365,400.071654 595.114025,398.104682 C599.133723,396.780393 603.089032,395.03938 606.935111,393.200138 C610.238484,391.642675 613.182544,389.81901 616.072565,387.445936 C618.582576,385.382168 620.918393,383.278822 623.135206,380.843194 C625.960263,377.722059 628.274233,373.879875 630.316852,370.081216 C632.468126,366.082524 634.043351,361.652242 635.553612,357.295888 C647.136114,366.064964 657.20778,375.983723 667.866418,385.058849 C672.288545,388.823678 676.721021,392.569843 681.241457,396.178247 C682.457944,397.154617 683.68593,398.117924 684.902992,399.105093 C687.03242,400.815692 688.857726,402.613337 691.259082,403.834824 C692.823384,404.852415 694.474495,405.570772 696.223915,405.954643 C698.48442,406.604451 701.026626,406.900316 703.352094,406.80649 C705.166478,406.867366 706.893476,406.553763 708.545162,405.866953 C711.087368,404.976604 714.151583,403.252031 715.998735,401.065301 C717.899928,398.845764 719.573461,396.465545 720.931374,393.815381 C722.58306,390.602284 723.712738,386.908824 724.734335,383.380751 C725.994515,379.00311 726.342329,374.178446 726.755107,369.619409 C727.113844,365.489224 726.994265,361.270173 726.939649,357.113432 C726.82007,348.297483 726.22275,339.603936 725.331655,330.81164 C724.929801,326.732525 724.549217,322.653649 724.169208,318.574635 C723.593734,312.561191 722.984915,306.545075 722.452558,300.530672 C722.137513,297.024788 721.832816,293.518418 721.517771,290.011551 C721.323455,287.790045 721.050378,285.550238 720.853762,283.312211 C726.908605,284.797906 732.295989,286.453964 737.674174,288.369723 C744.291269,290.711938 750.875594,293.200296 757.622615,294.968205 C761.034644,295.857828 764.435175,296.568677 767.890322,297.163592 C769.259157,297.364995 770.617645,297.376851 771.964635,297.186649 C774.735076,297.000525 776.97316,296.668719 779.559058,295.87245 C786.089343,293.847594 792.455781,289.904498 796.737058,284.271869 C798.746907,281.635019 800.431363,279.099332 801.941049,276.10945 C803.418541,273.178851 804.62468,270.058377 805.852666,266.999438 C807.613008,262.597251 808.824897,257.964081 810.012639,253.31585 C812.8147,255.731739 815.603538,258.133505 818.553922,260.353871 C822.248227,263.127375 825.996572,265.700771 829.994999,267.876961 C834.775289,270.468718 839.686081,273.121034 844.879724,274.354947 C847.672011,275.005459 850.052095,275.387993 852.822536,275.398422 C855.516516,275.393237 858.233491,274.995561 860.884353,274.640592 C865.555987,274.023211 870.11954,272.154159 874.433012,270.389299 C878.203203,268.826834 881.842318,267.075445 885.373926,265.021038 C890.002442,262.337133 894.25095,258.922978 898.444843,255.605158 C904.963629,250.46102 910.950058,244.612012 917.20899,239.164781 C924.607948,232.752775 931.844209,226.216519 938.99366,219.550282 C946.196577,212.86686 953.465032,206.304351 961.070954,200.165159 C968.580292,194.11753 976.298894,188.369902 984.072111,182.75037 C992.440924,176.76678 1000.81261,170.806249 1009.31193,165.053847 C1016.98281,159.896856 1024.60943,154.690531 1032.2257,149.471304 C1042.62391,142.380981 1053.48951,136.072416 1064.20219,129.53393 C1085.51947,116.630651 1106.96667,104.094373 1128.28395,91.4932263 C1143.78841,82.4241407 1159.19515,73.3084698 1174.74331,64.4750522" id="LPFM-Cursive"></path>
                    <path d="M914.382766,811.626482 C916.267617,808.695916 918.344391,805.897954 920.603382,803.301633 C926.335743,796.706297 933.603965,791.526122 941.333994,787.520292 C941.338659,787.519125 941.342741,787.518542 941.346239,787.518542 C941.373644,787.518542 941.401633,787.544198 941.384723,787.570437 C938.15965,792.858484 934.859359,798.080058 931.007464,802.940117 C925.951795,809.831062 919.738306,815.312662 913.072175,820.422131 C915.479005,820.303562 917.909236,820.237784 920.348863,820.237784 C929.817668,820.237784 939.429329,821.23137 948.369271,824.003965 C958.599009,827.186472 968.196676,831.894927 977.682974,836.793469 C977.713294,836.814461 977.693469,836.854111 977.663149,836.854111 C966.89172,837.175394 955.938367,837.105423 945.317959,835.097259 C933.769842,832.919805 922.745083,827.856686 912.707106,821.803117 C911.160238,831.089404 909.569444,840.370705 907.967813,849.646589 C907.395802,852.9393 906.702507,856.201691 906.060525,859.48449 C904.966064,865.036676 903.952653,870.618017 902.858192,876.170204 C901.864023,881.219767 900.970146,886.289155 899.996385,891.338717 C899.002799,896.448921 898.259942,901.629096 897.115335,906.70898 C897.105423,906.738717 897.055277,906.738717 897.055277,906.699067 C897.747988,901.518309 897.767813,896.197609 897.858192,890.977201 C897.948571,885.757376 897.948571,880.536968 897.948571,875.326472 C897.908338,852.648338 897.386472,829.980117 897.406297,807.301399 C897.426706,784.683324 898.129329,762.115394 899.143324,739.517726 C899.494927,731.637259 899.705423,723.736385 900.147405,715.855335 C900.549155,708.748047 901.100758,701.66 901.51242,694.562624 C901.94449,686.962624 902.305423,679.332886 901.984723,671.723557 C901.746822,665.886822 901.129329,660.089155 900.419708,654.292653 C899.96898,651.179534 899.388805,648.117143 898.28035,645.166706 C897.910671,644.430845 897.520583,643.74688 897.059942,643.064665 C896.913586,642.901983 896.760816,642.744548 896.601633,642.593528 C896.587055,642.585364 896.571895,642.576618 896.557901,642.569038 C896.383557,642.521808 896.210962,642.472828 896.0407,642.423848 C895.626122,642.393528 895.20863,642.396443 894.786472,642.432595 C894.72758,642.446006 894.669854,642.46 894.612128,642.474577 C894.550904,642.600525 894.490262,642.725306 894.430787,642.851254 C893.574227,645.190029 892.514752,647.448921 891.492012,649.721224 C891.516501,649.662915 891.539825,649.604023 891.564315,649.54688 C891.535743,649.615102 891.507172,649.682157 891.479184,649.749796 C891.454111,649.806356 891.428455,649.862332 891.403382,649.918309 C891.423207,649.878659 891.442449,649.837259 891.460525,649.79586 C890.550321,651.9807 889.63137,654.157376 888.702507,656.333469 C888.722332,656.293819 888.743324,656.253003 888.763149,656.213353 C888.321166,657.257085 887.889679,658.301399 887.447697,659.355627 C887.437784,659.385364 887.387638,659.385364 887.387638,659.345131 C887.900175,654.083324 888.519417,648.86 889.320583,643.637259 C889.511837,641.858251 889.590554,640.257085 890.509504,638.664665 C891.282682,637.309563 893.451195,636.305481 894.937493,636.094985 C895.782391,635.972536 896.629621,635.861166 897.466356,635.861166 C898.487347,635.861166 899.492595,636.02793 900.458192,636.546297 C901.893761,637.309563 903.329329,638.313644 904.373644,639.578367 C907.255277,643.09207 909.172478,647.06758 910.738659,651.32414 C912.555569,656.253003 914.282099,661.302566 915.537493,666.41277 C918.63895,679.102566 919.794052,692.193528 920.385889,705.224431 C920.978309,718.485656 921.500175,731.757376 921.079184,745.039009 C920.57656,760.428513 919.061108,775.728805 917.213878,791.008105 C916.410962,797.654169 915.567813,804.280408 914.50309,810.885656 C914.463022,811.132602 914.422914,811.379544 914.382766,811.626482 Z M779.821399,497.139009 C779.826064,497.12035 779.839475,497.11277 779.852886,497.11277 C779.867464,497.11277 779.882041,497.123265 779.882041,497.139009 C783.237143,529.160583 785.377668,561.290029 789.536851,593.220641 C790.846472,602.821224 792.109446,612.476035 794.107114,621.965248 C795.21207,627.235802 796.375918,632.536093 798.082624,637.646297 C799.487289,641.850962 801.06688,645.975743 802.746181,650.07137 C804.777085,654.868455 806.849388,659.659708 809.346764,664.229971 C811.792245,668.705773 814.527522,672.874869 817.595743,676.933761 C822.213819,682.530845 827.160175,687.999067 832.19516,693.232886 C832.214985,693.263207 832.185831,693.302857 832.15551,693.283032 C828.621399,691.45621 825.217901,689.427638 821.815569,687.369913 C814.78758,683.10344 808.000991,678.586239 802.258717,672.622391 C788.20449,658.025889 777.040058,640.577493 770.906531,621.202566 C758.006822,580.443382 765.947347,536.512187 779.821399,497.139009 Z M837.377085,546.823557 C837.382332,546.80898 837.394577,546.801399 837.407405,546.801399 C837.41965,546.801399 837.432478,546.80898 837.437726,546.823557 C838.386997,552.170496 839.117026,557.545423 839.823149,562.930262 C840.514694,567.874286 841.074461,572.850962 842.096035,577.734344 C843.109446,582.603149 844.384665,587.371662 845.679708,592.170496 C846.683207,595.894694 847.556676,599.649796 848.661633,603.344257 C848.670962,603.373411 848.631312,603.394402 848.611487,603.373411 C846.954344,601.516851 845.378251,599.579242 843.93277,597.561749 C841.131603,593.646297 838.180583,589.670204 836.29312,585.213061 C834.928105,582.000816 833.803324,578.929096 833.241224,575.464956 C832.708863,572.222974 832.669213,568.769329 833.020233,565.506356 C833.712945,559.081283 835.258717,552.927347 837.377085,546.823557 Z M897.303265,539.720525 C897.295102,539.704198 897.313761,539.674461 897.337085,539.674461 C897.341749,539.674461 897.34758,539.676793 897.353411,539.680292 C902.061866,542.420816 906.699767,545.542682 909.590729,550.311778 C912.542915,555.210321 914.25895,560.290204 914.741166,566.012653 C915.28344,572.518192 914.931837,579.114111 913.928338,585.558426 C913.928338,585.599242 913.877609,585.588746 913.867697,585.558426 C912.482274,581.884956 910.945831,578.240641 909.65137,574.525773 C906.706764,566.080875 904.87586,557.29137 901.785481,548.898367 C900.400641,545.785831 898.792478,542.785248 897.303265,539.720525 Z M917.620875,469.531312 C918.189971,469.516152 918.761983,469.507405 919.337493,469.507405 C923.714169,469.507405 928.260525,469.99312 932.28793,471.669504 C937.157318,473.697493 941.85586,476.056676 946.172478,479.128397 C956.000466,486.115569 964.493761,494.397784 971.651195,504.126064 C986.87102,524.786122 994.048863,550.085248 994.841866,575.554636 C995.243615,588.213528 994.671603,600.852595 992.723499,613.371545 C991.55965,620.940641 989.983557,628.399534 988.236035,635.838601 C986.268105,644.282332 984.300758,652.765131 981.68035,661.027522 C981.660525,661.067172 981.610379,661.057259 981.610379,661.017026 C981.409213,654.019942 980.907755,647.012362 980.476268,640.015277 C979.798717,628.979125 979.328163,617.941808 978.036618,606.954052 C975.932245,592.001866 972.978892,577.114402 969.061691,562.533644 C965.391137,548.842099 961.533411,535.16105 956.188222,522.01586 C950.299009,508.518484 943.274519,495.387289 934.380058,483.619359 C931.852362,480.47242 929.224373,477.443265 926.18414,474.782041 C923.469854,472.837434 920.609796,471.071837 917.610962,469.59137 C917.581224,469.571545 917.591137,469.531312 917.620875,469.531312 Z M876.654227,564.243382 C877.145773,564.088863 877.63207,564.012478 878.100292,564.012478 C879.124781,564.012478 880.065306,564.375743 880.789504,565.070787 C883.132945,566.668455 884.802915,569.725598 883.619825,572.603149 C882.95277,574.244548 882.014577,575.855044 880.63207,576.918017 C879.667638,578.185656 878.185423,579.015977 876.281633,578.907522 C873.390087,578.746589 870.790087,577.110437 870.027405,574.199067 C869.324781,571.539009 870.609329,568.366414 872.45656,566.4393 C873.524198,565.318017 875.058309,564.501108 876.654227,564.243382 Z M891.480117,649.751224 C891.485015,649.740816 891.4893,649.731633 891.493586,649.721224 C891.483178,649.747551 891.470933,649.773265 891.460525,649.799592 L891.480117,649.751224 Z M928.320408,709.005831 C928.320408,708.991254 928.332653,708.983673 928.346647,708.983673 C928.360058,708.983673 928.375219,708.991254 928.380466,709.005831 C930.531487,716.65481 933.238776,724.053644 936.234111,731.406997 C942.495918,745.981341 951.35481,759.227405 960.901166,771.847813 C969.580466,782.899125 979.080175,793.102624 988.946064,803.11312 C998.920408,813.223907 1008.21429,824.101458 1019.24286,833.106122 C1027.10875,838.919534 1035.80437,843.897376 1044.63353,848.037318 C1051.58047,851.300292 1058.69825,854.171429 1065.67493,857.333528 C1072.71283,860.525948 1079.74023,863.71895 1086.79738,866.840816 C1086.6965,866.800583 1086.60671,866.76035 1086.50641,866.720117 C1089.10641,867.804665 1091.68659,868.899125 1094.34665,869.842566 C1094.37697,869.853061 1094.37697,869.902624 1094.33673,869.902624 C1083.90583,869.260058 1073.49592,867.323032 1063.18513,865.716618 C1052.80496,864.099708 1042.34431,862.855394 1032.17405,860.18484 C1019.71633,856.922449 1007.53848,852.645481 996.856851,845.276968 C985.191545,837.235569 974.279009,827.878717 964.822449,817.317784 C955.807289,807.268805 947.595627,796.386006 941.591545,784.24898 C935.357143,771.63965 930.297668,758.358601 928.119242,744.413994 C926.281924,732.728863 926.603207,720.67172 928.320408,709.005831 Z" id="Tower"></path>
                </g>
            </g>
        </g>
    </g>
</svg>